Video
ID                                       : 0
Format                                   : MPEG-4 Visual
Format profile                           : Advanced Simple@L5
Format settings, BVOP                    : 2
Format settings, QPel                    : No
Format settings, GMC                     : No warppoints
Format settings, Matrix                  : Default (H.263)
Muxing mode                              : Packed bitstream
Codec ID                                 : XVID
Codec ID/Hint                            : XviD
Duration                                 : 2h 4mn
Bit rate                                 : 1 435 Kbps
Width                                    : 512 pixels
Height                                   : 384 pixels
Display aspect ratio                     : 4:3
Frame rate                               : 25.000 fps
Color space                              : YUV
Chroma subsampling                       : 4:2:0
Bit depth                                : 8 bits
Scan type                                : Progressive
Compression mode                         : Lossy
Bits/(Pixel*Frame)                       : 0.292
Stream size                              : 1.24 GiB (91%)
Writing library                          : XviD 64

Audio
ID                                       : 1
Format                                   : MPEG Audio
Format version                           : Version 1
Format profile                           : Layer 3
Mode                                     : Joint stereo
Mode extension                           : MS Stereo
Codec ID                                 : 55
Codec ID/Hint                            : MP3
Duration                                 : 2h 4mn
Bit rate mode                            : Variable
Bit rate                                 : 128 Kbps
Channel(s)                               : 2 channels
Sampling rate                            : 48.0 KHz
Compression mode                         : Lossy
Stream size                              : 113 MiB (8%)
Alignment                                : Aligned on interleaves
Interleave, duration                     : 24 ms (0.60 video frame)
Interleave, preload duration             : 478 ms
Writing library                          : LAME3.90.
Encoding settings                        : -m j -V 4 -q 2 -lowpass 17.6 --abr 128